<?xml version="1.0" standalone="no"?>
<!DOCTYPE svg PUBLIC "-//W3C//DTD SVG 20010904//EN"
 "http://www.w3.org/TR/2001/REC-SVG-20010904/DTD/svg10.dtd">
<svg version="1.0" xmlns="http://www.w3.org/2000/svg"
 width="73.000000pt" height="73.000000pt" viewBox="0 0 73.000000 73.000000"
 preserveAspectRatio="xMidYMid meet">
<metadata>
Created by potrace 1.14, written by Peter Selinger 2001-2017
</metadata>
<g transform="translate(0.000000,73.000000) scale(0.100000,-0.100000)"
fill="#000000" stroke="none">
<path d="M214 526 c-23 -24 -54 -69 -69 -100 -23 -47 -26 -63 -21 -103 11 -73
16 -88 27 -72 5 8 9 9 9 4 0 -6 9 -11 20 -11 15 0 20 7 20 26 0 20 10 29 43
45 23 10 44 18 47 17 6 -3 4 -29 -4 -62 -6 -22 -4 -25 19 -25 27 0 31 11 14
47 -12 27 10 92 35 101 10 4 13 13 9 24 -5 17 -5 17 8 1 8 -9 51 -39 95 -66
64 -38 80 -52 73 -64 -5 -9 -3 -22 5 -33 13 -18 15 -18 40 -2 26 17 35 37 16
37 -5 0 -23 24 -40 53 -46 80 -132 190 -162 206 -24 14 -28 14 -47 -3 -11 -10
-17 -24 -14 -32 3 -8 1 -14 -5 -14 -6 0 -15 -13 -21 -30 -5 -16 -15 -30 -20
-30 -17 0 -13 19 10 51 19 27 19 68 1 70 -4 0 -16 2 -27 4 -13 3 -33 -11 -61
-39z m93 -188 c-3 -8 -6 -5 -6 6 -1 11 2 17 5 13 3 -3 4 -12 1 -19z m268 -57
c3 -5 1 -12 -5 -16 -5 -3 -10 1 -10 9 0 18 6 21 15 7z"/>
<path d="M11 279 c-6 -17 -11 -33 -11 -33 0 -1 12 -1 28 0 21 1 26 6 24 20 -2
10 -9 25 -17 32 -10 11 -14 8 -24 -19z"/>
<path d="M418 298 c-11 -6 -11 -8 0 -8 9 0 10 -5 2 -19 -14 -26 -14 -26 15
-29 14 -1 25 3 25 8 0 6 -5 10 -10 10 -7 0 -7 6 0 19 5 11 10 21 10 24 0 7
-29 4 -42 -5z"/>
<path d="M706 299 c4 -8 0 -9 -15 -4 -19 6 -21 3 -21 -27 1 -29 2 -31 13 -16
12 15 14 15 24 0 10 -14 12 -11 12 21 1 20 -4 37 -10 37 -5 0 -7 -5 -3 -11z"/>
<path d="M160 188 c0 -17 47 -19 54 -3 2 7 -2 12 -10 12 -8 0 -14 -5 -14 -10
0 -5 -7 -4 -15 3 -12 10 -15 10 -15 -2z"/>
<path d="M230 191 c0 -5 5 -13 10 -16 6 -3 10 -2 10 4 0 5 -4 13 -10 16 -5 3
-10 2 -10 -4z"/>
<path d="M260 191 c0 -13 12 -20 26 -14 20 8 17 19 -6 20 -11 1 -20 -2 -20 -6z"/>
<path d="M341 184 c0 -11 3 -14 6 -6 3 7 2 16 -1 19 -3 4 -6 -2 -5 -13z"/>
<path d="M361 181 c0 -11 2 -12 6 -3 2 6 9 10 14 7 18 -11 76 -11 76 0 0 7
-19 12 -49 12 -37 0 -48 -4 -47 -16z"/>
<path d="M484 188 c-3 -4 2 -8 10 -8 9 0 19 0 23 -1 4 0 9 3 10 8 4 11 -37 12
-43 1z"/>
<path d="M541 184 c0 -11 3 -14 6 -6 3 7 2 16 -1 19 -3 4 -6 -2 -5 -13z"/>
<path d="M561 184 c0 -11 3 -14 6 -6 3 7 2 16 -1 19 -3 4 -6 -2 -5 -13z"/>
<path d="M580 184 c0 -8 5 -12 10 -9 6 4 8 11 5 16 -9 14 -15 11 -15 -7z"/>
<path d="M310 180 c0 -5 5 -10 11 -10 5 0 7 5 4 10 -3 6 -8 10 -11 10 -2 0 -4
-4 -4 -10z"/>
</g>
</svg>
